PathFileType  4	(X/Y/Z) C:\Users\antoi\Documents\MyRepositories\mobilecap\ResultsAnalysis
DataRate	CameraRate	NumFrames	NumMarkers	Units	OrigDataRate	OrigDataStartFrame	OrigNumFrames
100.0	100.0	6	51	mm	100.0	127	144
Frame#	Time	r_knee			r_shank_antsup			r_ankle			r_calc			r_5meta			r_toe			L_knee			L_shank_antsup			L_ankle			L_calc			L_5meta			L_toe			r_sh2			r_sh3			r_sh4			L_sh2			L_sh3			r_thigh1			r_thigh2			r_thigh3			r_thigh4			r_thigh5			L_thigh1			L_thigh2			L_thigh3			L_thigh4			r.ASIS			r.PSIS			L.ASIS			L.PSIS			C7			R_Shoulder			L_Shoulder			R_Sternum			L_Sternum			R_humerus			R_elbow_med			R_elbow_lat			R_forearm			R_wrist_radius			R_wrist_ulna			L_humerus			L_elbow_med			L_elbow_lat			L_forearm			L_wrist_radius			L_wrist_ulna			R_HJC			L_HJC			R_HJC_reg			L_HJC_reg			
		X1	Y1	Z1	X2	Y2	Z2	X3	Y3	Z3	X4	Y4	Z4	X5	Y5	Z5	X6	Y6	Z6	X7	Y7	Z7	X8	Y8	Z8	X9	Y9	Z9	X10	Y10	Z10	X11	Y11	Z11	X12	Y12	Z12	X13	Y13	Z13	X14	Y14	Z14	X15	Y15	Z15	X16	Y16	Z16	X17	Y17	Z17	X18	Y18	Z18	X19	Y19	Z19	X20	Y20	Z20	X21	Y21	Z21	X22	Y22	Z22	X23	Y23	Z23	X24	Y24	Z24	X25	Y25	Z25	X26	Y26	Z26	X27	Y27	Z27	X28	Y28	Z28	X29	Y29	Z29	X30	Y30	Z30	X31	Y31	Z31	X32	Y32	Z32	X33	Y33	Z33	X34	Y34	Z34	X35	Y35	Z35	X36	Y36	Z36	X37	Y37	Z37	X38	Y38	Z38	X39	Y39	Z39	X40	Y40	Z40	X41	Y41	Z41	X42	Y42	Z42	X43	Y43	Z43	X44	Y44	Z44	X45	Y45	Z45	X46	Y46	Z46	X47	Y47	Z47	X48	Y48	Z48	X49	Y49	Z49	X50	Y50	Z50	X51	Y51	Z51	

127	1.26000000	1467.66633	542.14555	-141.02374	1520.19413	456.46957	-156.65434	1508.98131	116.08191	-186.32742	1431.36139	73.35689	-229.21410	1632.75192	47.20109	-154.07561	1685.31983	80.21674	-220.28378	1237.92571	534.57881	-461.26937	1181.22543	459.93163	-476.71106	970.32884	203.98227	-388.82521	888.58837	204.49028	-314.01109	1004.96156	62.03127	-417.75905	1079.83251	61.08950	-370.18135	1525.28715	345.92227	-135.08336	1459.51380	461.04831	-111.20228	1446.58275	344.91844	-106.28746	1118.45692	517.96093	-445.50386	1053.19079	415.54914	-430.72152	1464.34291	872.31086	-126.76457	1490.53573	764.85439	-132.71741	1444.10997	727.66682	-97.98609	1356.68385	842.20237	-102.68121	1389.52062	732.35188	-111.83246	1374.08627	811.02209	-473.89544	1361.53116	671.01559	-467.95774	1263.74139	819.64715	-481.88945	1247.93690	683.02651	-478.74516	1426.17663	1075.10676	-165.69121	1243.73799	1070.41295	-226.64467	1424.10722	1049.43539	-418.93274	1241.03365	1068.03228	-336.53638	1328.65171	1612.14203	-345.40647	1384.36181	1550.95775	-166.81311	1380.40189	1527.07008	-507.09907	1437.56292	1512.38441	-303.79964	1437.04149	1505.40166	-359.71445	1355.87630	1393.82773	-95.35314	1240.70104	1211.96573	-145.11930	1246.18628	1229.69520	-62.45213	1269.40521	1060.97807	-21.75128	1297.11020	966.50015	-19.31445	1253.00023	979.15299	-5.23159	1388.67976	1410.49527	-592.76413	1395.85412	1161.52263	-571.60822	1412.44153	1192.49981	-649.06811	1482.27056	1163.77185	-667.78983	1624.94317	1055.78820	-674.25163	1597.21113	1030.84259	-695.35468	1354.36637	952.76154	-172.99499	1342.73290	940.73762	-379.27187	1375.16912	976.04197	-197.87220	1371.03592	972.41009	-365.77815	
128	1.27000000	1477.29063	543.04850	-139.45609	1528.46584	456.24175	-155.76662	1509.65017	115.81184	-186.12486	1431.36549	73.43184	-229.19253	1632.68405	46.98557	-153.68376	1685.48231	79.03824	-220.35049	1263.13498	532.78186	-463.00012	1204.44892	460.51268	-478.35972	985.67042	213.29057	-390.29755	905.32547	220.88730	-315.29256	1009.53745	68.56888	-417.58475	1084.71921	62.69475	-371.07731	1531.64353	345.56367	-134.39905	1468.45521	461.95203	-109.54464	1453.42345	346.02874	-104.22623	1143.83005	520.53317	-446.69075	1075.09542	420.31890	-431.67445	1477.49539	873.79640	-124.81602	1502.69740	766.11566	-130.89376	1456.19796	729.45456	-96.29888	1369.76264	844.72090	-100.68665	1401.41913	734.51729	-109.82534	1393.09299	811.29428	-473.23371	1383.75617	671.04173	-468.50377	1282.57290	817.50194	-482.23049	1269.72945	680.54428	-479.96147	1440.08023	1077.23854	-164.64701	1257.59030	1071.98694	-225.84079	1438.13375	1050.05144	-417.50001	1254.87379	1068.52355	-335.77855	1340.46941	1613.53540	-343.79475	1397.51445	1552.21159	-165.75046	1391.40161	1529.14032	-506.08333	1449.94280	1514.10392	-303.07182	1449.13245	1507.24067	-358.98270	1370.68511	1394.78108	-94.48284	1256.28251	1212.30815	-143.49263	1262.59375	1229.81640	-60.86079	1287.44264	1061.17291	-20.80746	1315.87307	966.88248	-18.95273	1271.76746	979.23663	-4.33618	1398.61207	1412.17957	-591.71635	1403.75785	1163.17428	-569.52571	1419.96431	1193.69285	-647.20515	1489.51729	1164.27686	-666.33497	1631.17453	1055.08399	-673.42168	1603.61296	1030.03024	-694.14024	1368.37999	954.76903	-171.21238	1357.01409	941.34952	-377.41807	1389.09045	978.43197	-195.85818	1384.94542	973.15172	-363.57195	
129	1.28000000	1486.29060	543.83695	-138.10116	1536.12830	455.94054	-154.85914	1510.17150	115.62485	-186.01111	1431.32007	73.49330	-229.17922	1632.64540	46.89477	-153.41652	1685.59220	78.14221	-220.46849	1289.22177	530.91528	-464.60430	1229.04515	460.86965	-479.89894	1002.63507	222.97820	-391.64198	924.33078	237.81937	-316.64445	1015.41341	76.42613	-417.48124	1090.66749	65.23609	-372.17988	1537.35612	345.15525	-133.78283	1476.51964	462.67979	-108.25482	1459.40109	347.03331	-102.84256	1170.49512	522.78979	-448.13089	1098.40838	424.89363	-432.86085	1490.11826	875.08491	-122.64114	1514.37363	767.22257	-128.88520	1467.61353	731.04062	-94.78448	1382.29066	847.07042	-98.89651	1412.69479	736.49566	-108.12718	1412.21490	811.69295	-472.64819	1406.41114	671.25207	-468.98791	1301.56137	815.19284	-482.62465	1292.01573	677.94550	-481.25694	1453.58116	1079.29750	-163.51343	1271.06904	1073.40789	-225.19473	1451.81802	1050.73684	-416.05922	1268.31967	1068.96153	-335.16867	1352.29980	1614.88275	-342.35144	1410.74955	1553.52784	-164.87331	1402.32935	1531.09760	-505.19216	1462.30758	1515.74279	-302.52140	1461.17718	1508.97216	-358.42308	1385.63103	1395.83010	-93.73824	1272.01250	1212.72328	-141.77771	1279.22832	1230.06267	-59.21547	1305.89482	1061.54059	-19.76320	1335.09516	967.44335	-18.48319	1291.01374	979.48233	-3.31270	1408.32812	1413.70672	-590.74969	1411.37130	1164.71650	-567.21119	1427.10932	1194.70833	-645.12742	1496.38507	1164.52302	-664.69959	1636.91954	1054.00509	-672.45812	1609.34580	1028.89836	-692.69659	1381.99594	956.66640	-169.54305	1371.02929	941.97523	-375.68530	1402.72027	980.68246	-193.84941	1398.53095	973.90865	-361.40852	
130	1.29000000	1494.62354	544.45052	-137.01251	1543.17019	455.51347	-153.95837	1510.62202	115.49493	-185.99418	1431.27902	73.55815	-229.17501	1632.66486	46.84320	-153.26368	1685.71681	77.41343	-220.61334	1315.96039	529.04955	-466.06019	1254.86832	460.93758	-481.28544	1021.13234	232.84925	-392.78314	945.30073	254.75673	-318.03298	1023.09512	85.49090	-417.55588	1098.02492	68.81018	-373.35319	1542.41883	344.64446	-133.25898	1483.68676	463.19033	-107.36927	1464.50202	347.88416	-102.17037	1198.27003	524.70124	-449.91082	1122.99433	429.20169	-434.30418	1502.20416	876.05742	-120.33682	1525.52255	768.03810	-126.72373	1478.22782	732.31073	-93.45407	1394.20294	849.15404	-97.42422	1423.29736	738.21079	-106.80409	1431.29503	812.23507	-472.17399	1429.24618	671.67313	-469.37139	1320.57624	812.78931	-482.98501	1314.59691	675.33258	-482.52069	1466.71761	1081.20527	-162.36127	1284.20313	1074.62824	-224.69445	1465.13872	1051.48283	-414.70324	1281.38275	1069.31505	-334.69380	1364.13030	1616.14600	-341.07610	1424.04177	1554.86271	-164.18558	1413.17709	1532.87967	-504.42058	1474.64581	1517.25081	-302.15102	1473.16281	1510.54427	-358.03277	1400.68127	1396.93471	-93.12155	1287.85511	1213.17246	-139.98955	1296.04528	1230.40267	-57.52618	1324.74572	1062.06299	-18.64297	1354.74044	968.15619	-17.92363	1310.71507	979.85868	-2.18174	1417.85838	1415.03077	-589.85838	1418.72037	1166.10912	-564.69564	1433.91076	1195.50171	-642.88106	1502.89518	1164.47685	-662.90242	1642.21388	1052.53623	-671.33920	1614.43730	1027.44161	-691.01392	1395.26529	958.37990	-168.05785	1384.75622	942.59686	-374.14602	1416.07189	982.73833	-191.92537	1411.77854	974.64861	-359.37855	
131	1.30000000	1502.31893	544.87200	-136.19692	1549.64155	454.94782	-153.08746	1511.04233	115.40635	-186.07166	1431.26464	73.63695	-229.18217	1632.73531	46.79712	-153.19341	1685.87722	76.78786	-220.75629	1343.14261	527.27922	-467.36845	1281.73861	460.67709	-482.49345	1041.03742	242.65888	-393.66532	967.74362	271.07507	-319.42302	1033.15278	95.47256	-417.91449	1107.24461	73.41634	-374.41557	1546.88706	344.01857	-132.83048	1490.03865	463.49333	-106.86018	1468.81962	348.58005	-102.12156	1226.92892	526.25743	-452.09972	1148.67712	433.17642	-436.01871	1513.76803	876.65485	-118.02661	1536.12423	768.48390	-124.47078	1488.00382	733.22054	-92.29405	1405.49393	850.92680	-96.31570	1433.24146	739.63376	-105.85644	1450.20252	812.94831	-471.83117	1452.04603	672.33889	-469.63419	1339.51640	810.37810	-483.22679	1337.28914	672.81613	-483.62237	1479.55664	1082.90410	-161.26243	1297.03940	1075.63120	-224.32165	1478.10955	1052.27473	-413.51285	1294.10879	1069.56303	-334.33265	1375.94366	1617.30279	-339.96057	1437.36040	1556.16994	-163.68627	1423.93532	1534.43762	-503.76974	1486.94499	1518.59845	-301.95901	1485.07560	1511.92691	-357.80444	1415.80911	1398.05928	-92.62778	1303.77435	1213.61495	-138.14631	1313.00136	1230.80034	-55.79769	1343.96987	1062.71533	-17.47553	1374.76828	968.99635	-17.29962	1330.85387	980.33420	-0.96697	1427.23162	1416.10607	-589.03017	1425.82670	1167.30900	-562.01200	1440.41571	1196.02207	-640.52284	1509.06063	1164.10161	-660.96692	1647.08803	1050.65561	-670.04786	1618.96751	1025.63103	-689.08710	1408.26050	959.86228	-166.80725	1398.19693	943.19856	-372.85125	1429.16559	984.57857	-190.15496	1424.70637	975.34185	-357.55477	
132	1.31000000	1509.47499	545.12481	-135.62118	1555.64753	454.27095	-152.27599	1511.45084	115.35318	-186.22671	1431.27730	73.73612	-229.19761	1632.83347	46.75015	-153.17009	1686.06365	76.23846	-220.87774	1370.58283	525.73774	-468.53168	1309.44309	460.11482	-483.49927	1062.19090	252.14606	-394.27211	991.06390	286.13266	-320.79389	1046.12075	105.91075	-418.61765	1118.85237	78.95158	-375.19618	1550.88617	343.30648	-132.48708	1495.75221	463.63930	-106.64804	1472.55246	349.15703	-102.51335	1256.20539	527.48285	-454.70979	1175.23724	436.79074	-438.00121	1524.85573	876.88324	-115.84420	1546.19117	768.54864	-122.22531	1497.00949	733.79692	-91.29646	1416.22957	852.40019	-95.55113	1442.59893	740.78263	-105.23771	1468.83142	813.87303	-471.62147	1474.64452	673.29912	-469.77680	1358.30474	808.05890	-483.27554	1359.93114	670.50771	-484.42694	1492.17846	1084.36635	-160.27696	1309.63458	1076.43089	-224.05946	1490.77323	1053.09558	-412.54303	1306.56366	1069.70235	-334.06586	1387.72138	1618.34765	-338.99308	1450.67144	1557.40783	-163.37041	1434.59808	1535.74467	-503.24715	1499.19128	1519.78015	-301.93953	1496.90363	1513.11573	-357.72810	1430.99459	1399.17701	-92.24838	1319.73907	1214.01279	-136.26276	1330.05990	1231.21852	-54.03116	1363.52808	1063.46704	-16.28839	1395.14052	969.94654	-16.64094	1351.41592	980.88221	0.30677	1436.46478	1416.89453	-588.25085	1432.70865	1168.27738	-559.19232	1446.67760	1196.22736	-638.09769	1514.89311	1163.36703	-658.91568	1651.56959	1048.34001	-668.57288	1623.03293	1023.43067	-686.91707	1421.05722	961.09958	-165.81663	1411.37393	943.77091	-371.82612	1442.02972	986.21193	-188.58673	1437.35662	975.96928	-355.98242	
